<mxfile host="app.diagrams.net" modified="2023-06-30T08:47:07.257Z" agent="Mozilla/5.0 (Windows NT 10.0; Win64; x64) AppleWebKit/537.36 (KHTML, like Gecko) Chrome/114.0.0.0 Safari/537.36" etag="b8IP00pErrZa5RcDgZdh" version="21.5.2" type="github">
  <diagram name="Seite-1" id="Pca2x1haqi-EjKuk0Mdo">
    <mxGraphModel dx="1195" dy="652" grid="1" gridSize="10" guides="1" tooltips="1" connect="1" arrows="1" fold="1" page="1" pageScale="1" pageWidth="827" pageHeight="1169" math="0" shadow="0">
      <root>
        <mxCell id="0" />
        <mxCell id="1" parent="0" />
        <mxCell id="jAhXsPHeYYYLabN6XBSm-10" style="rounded=0;orthogonalLoop=1;jettySize=auto;html=1;entryX=-0.013;entryY=0.156;entryDx=0;entryDy=0;entryPerimeter=0;startArrow=classic;startFill=1;" edge="1" parent="1" target="jAhXsPHeYYYLabN6XBSm-6">
          <mxGeometry relative="1" as="geometry">
            <mxPoint x="380" y="133" as="sourcePoint" />
          </mxGeometry>
        </mxCell>
        <mxCell id="jAhXsPHeYYYLabN6XBSm-12" value="contains" style="edgeLabel;html=1;align=center;verticalAlign=middle;resizable=0;points=[];" vertex="1" connectable="0" parent="jAhXsPHeYYYLabN6XBSm-10">
          <mxGeometry x="0.0663" y="-4" relative="1" as="geometry">
            <mxPoint x="-6" y="-17" as="offset" />
          </mxGeometry>
        </mxCell>
        <mxCell id="jAhXsPHeYYYLabN6XBSm-13" value="1" style="edgeLabel;html=1;align=center;verticalAlign=middle;resizable=0;points=[];" vertex="1" connectable="0" parent="jAhXsPHeYYYLabN6XBSm-10">
          <mxGeometry x="-0.6937" relative="1" as="geometry">
            <mxPoint x="-10" y="-13" as="offset" />
          </mxGeometry>
        </mxCell>
        <mxCell id="jAhXsPHeYYYLabN6XBSm-1" value="Building" style="swimlane;fontStyle=1;align=center;verticalAlign=top;childLayout=stackLayout;horizontal=1;startSize=26;horizontalStack=0;resizeParent=1;resizeParentMax=0;resizeLast=0;collapsible=1;marginBottom=0;whiteSpace=wrap;html=1;" vertex="1" parent="1">
          <mxGeometry x="180" y="120" width="200" height="334" as="geometry">
            <mxRectangle x="180" y="120" width="90" height="30" as="alternateBounds" />
          </mxGeometry>
        </mxCell>
        <mxCell id="jAhXsPHeYYYLabN6XBSm-2" value="id: String&lt;br&gt;name: String&lt;br&gt;project_type: String&lt;br&gt;country: String&lt;br&gt;postal_code: String&lt;br&gt;city: String&lt;br&gt;street: String&lt;br&gt;house_number: String&lt;br&gt;year: Date&lt;br&gt;year_of_renovation: Date&lt;br&gt;gross_floor_space: int&lt;br&gt;net_floor_space: int&lt;br&gt;above_ground_floors: int&lt;br&gt;underground_floors: int&lt;br&gt;main_types_of_use: list&lt;br&gt;owner: String&lt;br&gt;owner_type: String&lt;br&gt;rental_situation: String" style="text;strokeColor=none;fillColor=none;align=left;verticalAlign=top;spacingLeft=4;spacingRight=4;overflow=hidden;rotatable=0;points=[[0,0.5],[1,0.5]];portConstraint=eastwest;whiteSpace=wrap;html=1;" vertex="1" parent="jAhXsPHeYYYLabN6XBSm-1">
          <mxGeometry y="26" width="200" height="274" as="geometry" />
        </mxCell>
        <mxCell id="jAhXsPHeYYYLabN6XBSm-3" value="" style="line;strokeWidth=1;fillColor=none;align=left;verticalAlign=middle;spacingTop=-1;spacingLeft=3;spacingRight=3;rotatable=0;labelPosition=right;points=[];portConstraint=eastwest;strokeColor=inherit;" vertex="1" parent="jAhXsPHeYYYLabN6XBSm-1">
          <mxGeometry y="300" width="200" height="8" as="geometry" />
        </mxCell>
        <mxCell id="jAhXsPHeYYYLabN6XBSm-4" value="+ method(type): type" style="text;strokeColor=none;fillColor=none;align=left;verticalAlign=top;spacingLeft=4;spacingRight=4;overflow=hidden;rotatable=0;points=[[0,0.5],[1,0.5]];portConstraint=eastwest;whiteSpace=wrap;html=1;" vertex="1" parent="jAhXsPHeYYYLabN6XBSm-1">
          <mxGeometry y="308" width="200" height="26" as="geometry" />
        </mxCell>
        <mxCell id="jAhXsPHeYYYLabN6XBSm-6" value="Section" style="swimlane;fontStyle=1;align=center;verticalAlign=top;childLayout=stackLayout;horizontal=1;startSize=26;horizontalStack=0;resizeParent=1;resizeParentMax=0;resizeLast=0;collapsible=1;marginBottom=0;whiteSpace=wrap;html=1;" vertex="1" parent="1">
          <mxGeometry x="580" y="120" width="160" height="86" as="geometry" />
        </mxCell>
        <mxCell id="jAhXsPHeYYYLabN6XBSm-7" value="+ field: type" style="text;strokeColor=none;fillColor=none;align=left;verticalAlign=top;spacingLeft=4;spacingRight=4;overflow=hidden;rotatable=0;points=[[0,0.5],[1,0.5]];portConstraint=eastwest;whiteSpace=wrap;html=1;" vertex="1" parent="jAhXsPHeYYYLabN6XBSm-6">
          <mxGeometry y="26" width="160" height="26" as="geometry" />
        </mxCell>
        <mxCell id="jAhXsPHeYYYLabN6XBSm-8" value="" style="line;strokeWidth=1;fillColor=none;align=left;verticalAlign=middle;spacingTop=-1;spacingLeft=3;spacingRight=3;rotatable=0;labelPosition=right;points=[];portConstraint=eastwest;strokeColor=inherit;" vertex="1" parent="jAhXsPHeYYYLabN6XBSm-6">
          <mxGeometry y="52" width="160" height="8" as="geometry" />
        </mxCell>
        <mxCell id="jAhXsPHeYYYLabN6XBSm-9" value="+ method(type): type" style="text;strokeColor=none;fillColor=none;align=left;verticalAlign=top;spacingLeft=4;spacingRight=4;overflow=hidden;rotatable=0;points=[[0,0.5],[1,0.5]];portConstraint=eastwest;whiteSpace=wrap;html=1;" vertex="1" parent="jAhXsPHeYYYLabN6XBSm-6">
          <mxGeometry y="60" width="160" height="26" as="geometry" />
        </mxCell>
      </root>
    </mxGraphModel>
  </diagram>
</mxfile>
